<svg xmlns="http://www.w3.org/2000/svg" width="22" height="14" fill="none"><path fill="#000" d="M5.648 13.754c2.798 0 4.78-1.362 4.78-3.798 0-2.926-2.309-3.543-4.835-4.052-1.944-.382-3.398-.818-3.398-2.29 0-1.345 1.163-2.09 2.926-2.09 1.908 0 3.107.927 3.343 2.78h1.545C9.682 1.906 8.337.252 5.084.252 2.45.252.668 1.542.668 3.687c0 2.453 1.963 3.107 4.253 3.616 2.326.509 3.889.927 3.889 2.708 0 1.617-1.29 2.435-3.09 2.435-2.453 0-3.798-1.145-4.016-3.344h-1.6c.146 2.617 1.89 4.652 5.544 4.652Zm6.65-.254h9.396v-1.508h-7.76V7.43h6.851V6.05h-6.85V1.941h7.54V.506h-9.177V13.5Z"/></svg>